Coordinates
version=1
nRows=8
nColumns=40
inDegrees=yes

Units are S.I. units (second, meters, Newtons, ...)
If the header above contains a line with 'inDegrees', this indicates whether rotational values are in degrees (yes) or radians (no).

endheader
time	pelvis_tilt	pelvis_list	pelvis_rotation	pelvis_tx	pelvis_ty	pelvis_tz	hip_flexion_r	hip_adduction_r	hip_rotation_r	knee_angle_r	knee_angle_r_beta	ankle_angle_r	subtalar_angle_r	mtp_angle_r	hip_flexion_l	hip_adduction_l	hip_rotation_l	knee_angle_l	knee_angle_l_beta	ankle_angle_l	subtalar_angle_l	mtp_angle_l	lumbar_extension	lumbar_bending	lumbar_rotation	arm_flex_r	arm_add_r	arm_rot_r	elbow_flex_r	pro_sup_r	wrist_flex_r	wrist_dev_r	arm_flex_l	arm_add_l	arm_rot_l	elbow_flex_l	pro_sup_l	wrist_flex_l	wrist_dev_l
     10.40833333	     12.31313691	     -6.94097742	     -0.39938810	     -0.41040028	      1.20481246	      0.01819884	     53.94665486	      0.74857770	     -3.19353754	     75.94987245	      1.32557534	     11.48667168	    -20.55364802	      0.00000000	     32.59149486	     -7.96955192	     12.82128787	     79.44145156	      1.38651489	     -1.27068790	    -31.99199908	      0.00000000	    -75.08356645	      5.53226548	     11.21674857	     81.70326565	     -7.11206956	      6.00583139	     46.14657875	     12.45895842	      0.00000000	      0.00000000	     89.88376028	     -0.45414282	     25.36708266	     24.41963572	     82.21882457	      0.00000000	      0.00000000
     10.41666667	     12.43864554	     -6.56153503	     -0.44336821	     -0.41010108	      1.20497079	      0.01811875	     52.59940314	      0.61797517	     -2.92716743	     74.06970390	      1.29276021	     11.37072276	    -20.56709859	      0.00000000	     33.26683233	     -7.52619933	     12.67740690	     81.22066041	      1.41756794	     -1.01141034	    -32.08609259	      0.00000000	    -75.16107839	      5.31084251	     10.81822526	     81.63970890	     -7.08546615	      5.99259031	     46.22797079	     12.32922264	      0.00000000	      0.00000000	     89.88153779	     -0.50347802	     25.38459019	     24.54467921	     82.44546964	      0.00000000	      0.00000000
     10.42500000	     12.79907678	     -6.84132721	     -0.14463116	     -0.40964566	      1.20569222	      0.01808703	     50.79584761	      0.69555803	     -3.48133965	     71.94994629	      1.25576346	     10.93923885	    -20.64809712	      0.00000000	     33.82494727	     -7.59198974	     13.24276616	     83.04258023	      1.44936644	     -0.38214579	    -31.49857567	      0.00000000	    -75.53107902	      5.59168141	     10.99152833	     81.64940735	     -7.06949121	      6.01854862	     46.08075169	     11.09952348	      0.00000000	      0.00000000	     89.88130373	     -0.52959823	     25.29212907	     24.58223166	     84.16316015	      0.00000000	      0.00000000
     10.43333333	     12.89183935	     -6.42123927	     -0.25837022	     -0.40939986	      1.20567969	      0.01800604	     49.59628568	      0.55785557	     -3.09747319	     70.30168223	      1.22699582	     10.60011535	    -20.54540519	      0.00000000	     34.60798513	     -7.14323143	     13.02964235	     84.83678122	      1.48068116	     -0.19621287	    -31.51056768	      0.00000000	    -75.56492578	      5.29847417	     10.59830144	     81.59635292	     -7.10416275	      6.00038349	     46.14593953	     11.05165794	      0.00000000	      0.00000000	     89.88050717	     -0.51023731	     25.25519538	     24.63486656	     84.20518919	      0.00000000	      0.00000000
     10.44166667	     13.10669651	     -6.21299765	     -0.02864209	     -0.40879424	      1.20589435	      0.01779366	     47.95489729	      0.21109041	     -3.37916511	     68.25124846	      1.19120900	     10.08089760	    -20.24926858	      0.00000000	     35.32182515	     -6.74124216	     13.25443994	     86.58908057	      1.51126455	      0.46746624	    -30.75016082	      0.00000000	    -75.69682663	      5.35621923	     10.29987344	     81.45655583	     -7.10463176	      5.99702942	     46.11494422	     10.46006294	      0.00000000	      0.00000000	     89.88049812	     -0.49053169	     25.28201699	     24.52502724	     84.67517827	      0.00000000	      0.00000000
     10.45000000	     13.00331512	     -6.07723100	     -0.11891414	     -0.40872983	      1.20573634	      0.01808050	     46.74112388	      0.44985743	     -3.09468696	     66.24649936	      1.15621953	      9.34806763	    -20.79535529	      0.00000000	     36.43975228	     -6.58886703	     13.26300634	     88.35462442	      1.54207911	      0.93203117	    -30.30799945	      0.00000000	    -75.57360756	      5.16951354	     10.16970110	     81.40880021	     -7.13841145	      5.96431390	     46.10242088	     10.17692017	      0.00000000	      0.00000000	     89.88123188	     -0.48085323	     25.31692451	     24.56724756	     84.79223369	      0.00000000	      0.00000000
     10.45833333	     13.03337687	     -5.63184209	     -0.19574504	     -0.40846192	      1.20565759	      0.01804610	     45.42295766	      0.24102858	     -2.78239315	     64.41157698	      1.12419409	      9.00561892	    -20.68941430	      0.00000000	     37.36495414	     -6.10553022	     13.03815138	     90.03369401	      1.57138440	      1.16193562	    -30.31092030	      0.00000000	    -75.53550915	      4.89034724	      9.72651184	     81.31936781	     -7.16415254	      5.93268630	     46.16100459	     10.15188614	      0.00000000	      0.00000000	     89.88100755	     -0.46756122	     25.33965188	     24.56536214	     84.80488476	      0.00000000	      0.00000000
     10.46666667	     12.99899395	     -5.24302412	     -0.28951112	     -0.40829075	      1.20568375	      0.01808727	     44.08967471	      0.02527382	     -2.61682648	     62.44926874	      1.08994536	      8.44515852	    -20.51800248	      0.00000000	     38.36128244	     -5.64358002	     12.92857725	     91.62923197	      1.59923179	      1.40825587	    -30.24002926	      0.00000000	    -75.46069373	      4.60299540	      9.33245799	     81.24187766	     -7.18389533	      5.87968861	     46.17349965	     10.11820019	      0.00000000	      0.00000000	     89.88224981	     -0.45850988	     25.39289137	     24.58673089	     84.82505089	      0.00000000	      0.00000000
